<svg width="32768" height="8009" viewBox="0 0 32768 8009" fill="none" xmlns="http://www.w3.org/2000/svg">
<path d="M1296.81 4855.22C1296.81 5839.39 1509.08 6121.13 2543.43 6121.13H3326.92V5272.05H2940.96C2485.54 5272.05 2369.75 5156.26 2369.75 4662.25V2207.62H3334.64V1385.55H2369.75V11.5794H1296.81V1385.55H582.795V2207.62H1296.81V4855.22Z" fill="#F9F8F7"/>
<path d="M5009.66 3639.49C5009.66 2856.01 5565.43 2435.33 6086.47 2435.33H6171.38C6688.55 2435.33 6951 2740.23 6951 3342.31V6090.26H7896.58V3172.49C7896.58 2226.92 7267.48 1613.26 6294.88 1613.26C5750.69 1613.26 5318.42 1794.66 5005.8 2157.45V0H4060.22V6090.26H5005.8V3639.49H5009.66Z" fill="#F9F8F7"/>
<path d="M10810.5 6175.17C11775.4 6175.17 12512.6 5611.68 12647.7 4774.18L12659.2 4693.13H11713.7L11702.1 4751.02C11636.5 5121.53 11316.1 5353.1 10860.7 5353.1H10810.5C10142.8 5353.1 9749.16 4727.86 9687.41 4091.05H12655.4V3554.58C12655.4 2392.88 11902.8 1613.27 10783.5 1613.27C9795.47 1613.27 8734.1 2323.41 8734.1 3882.64C8734.1 5252.75 9571.62 6175.17 10810.5 6175.17ZM10744.9 2435.33H10829.8C11331.6 2435.33 11655.8 2763.39 11705.9 3315.3H9753.02C9895.82 2759.53 10262.5 2435.33 10744.9 2435.33Z" fill="#F9F8F7"/>
<path d="M17028.2 3458.09C16592.1 3492.83 16213.9 3616.33 15897.4 3828.6C15577 4048.59 15414.9 4388.23 15414.9 4847.51C15414.9 5603.96 16047.9 6175.17 16885.4 6175.17C17460.5 6175.17 17981.5 5874.13 18232.4 5553.79C18240.1 5735.19 18228.5 6090.26 18228.5 6090.26H19131.7L19120.1 6013.07C19093.1 5804.66 19077.6 5476.6 19077.6 5086.79V3303.72C19077.6 2311.83 18340.5 1617.12 17283 1617.12C16283.3 1617.12 15550 2184.47 15496 2998.82L15492.1 3072.15H16437.7L16445.4 3010.39C16480.2 2663.04 16804.4 2435.33 17267.5 2435.33H17310C17823.3 2435.33 18132 2759.53 18132 3299.86V3373.19L17028.2 3458.09ZM18135.9 4488.58C18135.9 4947.85 17533.8 5353.1 17059.1 5353.1H16974.2C16626.8 5353.1 16364.4 5121.53 16364.4 4812.77C16364.4 4480.86 16665.4 4253.15 17147.9 4210.69L18135.9 4141.22V4488.58Z" fill="#F9F8F7"/>
<path d="M21119.3 0H20173.7V6090.26H21119.3V0Z" fill="#F9F8F7"/>
<path d="M23203.5 0H22257.9V6090.26H23203.5V0Z" fill="#F9F8F7"/>
<path d="M26159.9 6175.17C27124.7 6175.17 27861.9 5611.68 27997 4774.18L28008.6 4693.13H27059.1L27047.6 4751.02C26981.9 5125.39 26657.7 5356.96 26206.2 5356.96H26156C25488.3 5356.96 25094.6 4731.72 25032.9 4094.91H28000.9V3558.44C28000.9 2396.74 27248.3 1617.12 26129 1617.12C25140.9 1617.12 24079.6 2327.27 24079.6 3886.5C24083.4 5252.75 24921 6175.17 26159.9 6175.17ZM26094.3 2435.33H26179.2C26680.9 2435.33 27005.1 2763.39 27055.3 3315.29H25102.4C25245.2 2759.53 25611.8 2435.33 26094.3 2435.33Z" fill="#F9F8F7"/>
<path d="M31717.6 1705.89L31617.2 2091.84L30598.3 5214.16L29482.9 1713.61H28363.6L30123.6 6449.19L30077.3 6557.25C29872.7 7140.04 29699 7205.65 29270.6 7232.66C29174.1 7240.38 28849.9 7232.66 28849.9 7232.66H0L7.71952 8008.42C7.71952 8008.42 21362.5 8000.7 29205 8000.7C29232 8000.7 29378.7 8008.42 29413.4 8000.7C30389.9 7992.98 30636.9 7607.03 31053.7 6464.63L32628.4 2091.84L32767.4 1709.75L31717.6 1705.89Z" fill="#F9F8F7"/>
</svg>
