<svg width="7732" height="1890" viewBox="0 0 7732 1890" fill="none" xmlns="http://www.w3.org/2000/svg">
<path d="M305.993 1145.63C305.993 1377.85 356.081 1444.33 600.145 1444.33H785.015V1243.99H693.946C586.485 1243.99 559.164 1216.66 559.164 1100.1V520.908H786.836V326.934H559.164V2.73242H305.993V326.934H137.516V520.908H305.993V1145.63Z" fill="white"/>
<path d="M1182.08 858.769C1182.08 673.901 1313.22 574.637 1436.16 574.637H1456.19C1578.23 574.637 1640.15 646.581 1640.15 788.646V1437.05H1863.27V748.577C1863.27 525.461 1714.83 380.663 1485.34 380.663C1356.93 380.663 1254.93 423.465 1181.17 509.069V0H958.047V1437.05H1181.17V858.769H1182.08Z" fill="white"/>
<path d="M2550.84 1457.08C2778.51 1457.08 2952.45 1324.12 2984.33 1126.51L2987.06 1107.38H2763.94L2761.21 1121.04C2745.73 1208.47 2670.14 1263.11 2562.68 1263.11H2550.84C2393.29 1263.11 2300.4 1115.58 2285.83 965.318H2986.15V838.734C2986.15 564.62 2808.57 380.663 2544.47 380.663C2311.33 380.663 2060.89 548.228 2060.89 916.141C2060.89 1239.43 2258.51 1457.08 2550.84 1457.08ZM2535.36 574.637H2555.39C2673.78 574.637 2750.28 652.045 2762.12 782.272H2301.31C2335.01 651.134 2421.52 574.637 2535.36 574.637Z" fill="white"/>
<path d="M4017.96 815.967C3915.05 824.163 3825.8 853.305 3751.13 903.392C3675.54 955.301 3637.29 1035.44 3637.29 1143.81C3637.29 1322.3 3786.64 1457.08 3984.26 1457.08C4119.95 1457.08 4242.9 1386.05 4302.09 1310.46C4303.91 1353.27 4301.18 1437.05 4301.18 1437.05H4514.28L4511.55 1418.84C4505.17 1369.66 4501.53 1292.25 4501.53 1200.27V779.54C4501.53 545.496 4327.59 381.574 4078.06 381.574C3842.19 381.574 3669.16 515.444 3656.41 707.596L3655.5 724.899H3878.62L3880.44 710.328C3888.64 628.367 3965.14 574.638 4074.42 574.638H4084.44C4205.56 574.638 4278.41 651.134 4278.41 778.629V795.932L4017.96 815.967ZM4279.32 1059.12C4279.32 1167.49 4137.26 1263.11 4025.24 1263.11H4005.21C3923.24 1263.11 3861.32 1208.47 3861.32 1135.61C3861.32 1057.3 3932.35 1003.57 4046.19 993.549L4279.32 977.157V1059.12Z" fill="white"/>
<path d="M4983.28 0H4760.16V1437.05H4983.28V0Z" fill="white"/>
<path d="M5475.06 0H5251.94V1437.05H5475.06V0Z" fill="white"/>
<path d="M6172.64 1457.08C6400.31 1457.08 6574.26 1324.12 6606.13 1126.51L6608.86 1107.38H6384.83L6382.1 1121.04C6366.62 1209.38 6290.12 1264.02 6183.57 1264.02H6171.73C6014.18 1264.02 5921.29 1116.49 5906.72 966.229H6607.04V839.645C6607.04 565.531 6429.46 381.574 6165.36 381.574C5932.22 381.574 5681.78 549.139 5681.78 917.052C5682.69 1239.43 5880.31 1457.08 6172.64 1457.08ZM6157.16 574.638H6177.2C6295.58 574.638 6372.08 652.045 6383.92 782.272H5923.11C5956.81 651.135 6043.32 574.638 6157.16 574.638Z" fill="white"/>
<path d="M7484.04 402.52L7460.36 493.587L7219.94 1230.33L6956.75 404.341H6692.65L7107.92 1521.74L7096.99 1547.24C7048.73 1684.75 7007.75 1700.23 6906.66 1706.61C6883.89 1708.43 6807.39 1706.61 6807.39 1706.61H0L1.82149 1889.66C1.82149 1889.66 5040.66 1887.83 6891.18 1887.83C6897.55 1887.83 6932.16 1889.66 6940.35 1887.83C7170.76 1886.01 7229.04 1794.94 7327.4 1525.38L7698.96 493.587L7731.74 403.43L7484.04 402.52Z" fill="white"/>
</svg>
